<?xml version="1.0" encoding="utf-8"?>
<!-- Generator: Adobe Illustrator 21.0.0, SVG Export Plug-In . SVG Version: 6.00 Build 0)  -->
<svg version="1.1" id="Capa_1" xmlns="http://www.w3.org/2000/svg" xmlns:xlink="http://www.w3.org/1999/xlink" x="0px" y="0px"
	 viewBox="0 0 863 314" style="enable-background:new 0 0 863 314;" xml:space="preserve">
<style type="text/css">
	.st0{fill:#FFFFFF;}
</style>
<path class="st0" d="M855.8,149.4H29.4L164.5,13c3-3,3-7.8,0-10.8s-7.8-3-10.7,0L9.2,148.1c-2.2,2.2-2.7,5.3-1.7,8.1
	c0,0.3-0.2,0.5-0.2,0.8s0.1,0.5,0.2,0.8c-1,2.7-0.5,5.9,1.7,8.1l144.6,145.9c1.5,1.5,3.4,2.2,5.4,2.2s3.9-0.7,5.4-2.2
	c3-3,3-7.8,0-10.8L29.4,164.6h826.4c4.2,0,7.6-3.4,7.6-7.6S860,149.4,855.8,149.4z"/>
</svg>
